<?xml version="1.0" encoding="UTF-8" standalone="no"?>
<svg
   xmlns:dc="http://purl.org/dc/elements/1.1/"
   xmlns:cc="http://creativecommons.org/ns#"
   xmlns:rdf="http://www.w3.org/1999/02/22-rdf-syntax-ns#"
   xmlns:svg="http://www.w3.org/2000/svg"
   xmlns="http://www.w3.org/2000/svg"
   xmlns:sodipodi="http://sodipodi.sourceforge.net/DTD/sodipodi-0.dtd"
   xmlns:inkscape="http://www.inkscape.org/namespaces/inkscape"
   width="24"
   height="24"
   enable-background="new"
   version="1.1"
   id="svg16"
   sodipodi:docname="battery-caution-charging.svg"
   inkscape:version="0.92.5 (2060ec1f9f, 2020-04-08)">
  <metadata
     id="metadata22">
    <rdf:RDF>
      <cc:Work
         rdf:about="">
        <dc:format>image/svg+xml</dc:format>
        <dc:type
           rdf:resource="http://purl.org/dc/dcmitype/StillImage" />
      </cc:Work>
    </rdf:RDF>
  </metadata>
  <defs
     id="defs20" />
  <sodipodi:namedview
     pagecolor="#ffffff"
     bordercolor="#666666"
     borderopacity="1"
     objecttolerance="10"
     gridtolerance="10"
     guidetolerance="10"
     inkscape:pageopacity="0"
     inkscape:pageshadow="2"
     inkscape:window-width="936"
     inkscape:window-height="338"
     id="namedview18"
     showgrid="false"
     inkscape:zoom="9.8333333"
     inkscape:cx="12"
     inkscape:cy="12"
     inkscape:window-x="969"
     inkscape:window-y="726"
     inkscape:window-maximized="0"
     inkscape:current-layer="g14" />
  <title
     id="title2">Paper Symbolic Icon Theme</title>
  <g
     transform="translate(1,-4)"
     fill="#363636"
     id="g14">
    <g
       transform="translate(1,8)"
       id="g10"
       style="fill:#f2f2f2">
      <path
         d="m2 3c-1.108 0-2 0.892-2 2v6c0 1.108 0.892 2 2 2h13c1.108 0 2-0.892 2-2v-6c0-1.108-0.892-2-2-2zm0 1h13c0.554 0 1 0.446 1 1v6c0 0.554-0.446 1-1 1h-13c-0.554 0-1-0.446-1-1v-6c0-0.554 0.446-1 1-1z"
         enable-background="new"
         fill-rule="evenodd"
         style="paint-order:stroke fill markers;fill:#f2f2f2"
         id="path4" />
      <path
         d="m18 6v4a2 2 0 0 0 2-2 2 2 0 0 0-2-2z"
         enable-background="new"
         fill-rule="evenodd"
         style="paint-order:stroke fill markers;fill:#f2f2f2"
         id="path6" />
      <path
         d="m8.834 4-3.334 5h3l-0.75 3h0.41602l3.334-5h-3l0.75-3z"
         enable-background="new"
         id="path8"
         style="fill:#f2f2f2" />
    </g>
    <path
       d="m3.4824 13c-0.26703 0-0.48242 0.24253-0.48242 0.54492v4.9102c0 0.3024 0.21539 0.54492 0.48242 0.54492h2.0352c0.26703 0 0.48242-0.24253 0.48242-0.54492v-0.5918c-0.46977-0.27296-0.67079-0.90961-0.33203-1.418l0.33203-0.49805v-2.4023c0-0.3024-0.21539-0.54492-0.48242-0.54492h-2.0352z"
       enable-background="new"
       fill-rule="evenodd"
       style="paint-order:stroke fill markers;fill:#f2f2f2"
       id="path12" />
  </g>
</svg>
